{"glyphs":{":":{"x_min":0,"x_max":277,"ha":277,"o":"m 74 388 l 140 468 q 148 478 153 478 q 158 478 167 468 l 232 388 q 245 372 232 357 l 167 277 q 158 267 153 267 q 148 267 140 277 l 74 357 q 67 367 67 372 q 67 378 74 388 z m 74 107 l 140 188 q 148 198 153 198 q 158 198 167 188 l 232 107 q 245 92 232 77 l 167 -4 q 158 -14 153 -14 q 148 -14 140 -4 l 74 77 q 67 86 67 92 q 67 98 74 107 z"},"$":{"x_min":0,"x_max":478,"ha":478,"o":"m 266 361 l 288 354 q 378 327 418 285 q 458 242 458 176 q 458 98 408 49 q 358 1 266 -10 l 266 -114 l 218 -114 l 218 -12 q 185 -9 172 -6 q 99 8 60 43 q 21 78 21 128 q 21 162 41 184 q 61 206 92 206 q 122 206 141 188 q 160 171 160 145 q 160 107 131 83 q 125 78 125 74 q 125 61 153 49 q 181 37 218 34 l 218 232 l 189 242 q 110 266 74 304 q 38 342 38 400 q 38 453 65 496 q 92 539 140 562 q 168 577 218 582 l 218 668 l 266 668 l 266 583 q 350 578 399 545 q 448 513 448 464 q 448 432 428 410 q 408 389 376 389 q 349 389 331 406 q 312 423 312 448 q 312 470 327 493 q 332 500 332 506 q 332 532 266 538 z m 218 376 l 218 538 q 138 523 138 458 q 138 400 207 379 z m 266 218 l 266 37 q 287 38 302 45 q 325 54 339 76 q 353 98 353 124 q 353 191 274 215 z"},"?":{"x_min":0,"x_max":438,"ha":438,"o":"m 131 108 l 187 190 q 194 201 198 201 q 202 201 210 190 l 266 108 q 277 92 266 76 l 210 -7 q 202 -18 198 -18 q 194 -18 187 -7 l 131 76 q 125 86 125 92 q 125 98 131 108 z m 208 362 q 233 390 245 416 q 256 442 256 475 q 256 518 235 544 q 213 569 186 562 q 178 560 174 556 q 170 552 170 543 q 170 535 171 527 q 172 518 174 503 q 176 488 176 473 q 176 444 156 425 q 136 407 104 407 q 70 407 48 429 q 25 451 25 484 q 25 542 78 578 q 130 614 212 614 q 300 614 351 574 q 402 534 402 466 q 402 408 358 365 q 338 348 308 328 q 278 309 252 290 q 226 271 210 247 q 203 238 200 238 q 197 238 192 246 l 172 278 q 167 288 169 297 q 175 324 208 362 z"},"<":{"x_min":0,"x_max":505,"ha":505,"o":"m 465 337 l 192 211 l 465 83 l 465 -21 l 41 172 l 41 248 l 465 441 z"},"'":{"x_min":0,"x_max":210,"ha":210,"o":"m 42 315 l 56 520 q 57 527 60 538 q 68 561 89 574 q 111 587 142 587 q 174 587 188 574 q 201 562 193 538 q 189 526 187 520 l 69 315 z"},"=":{"x_min":0,"x_max":505,"ha":505,"o":"m 42 77 l 42 172 l 462 172 l 462 77 z m 42 248 l 42 344 l 462 344 l 462 248 z"},"a":{"x_min":0,"x_max":509,"ha":509,"o":"m 430 265 l 430 118 q 430 82 435 70 q 439 58 452 58 q 460 58 468 64 q 478 70 485 70 q 498 70 498 57 q 498 30 470 9 q 442 -12 406 -12 q 340 -12 318 47 q 284 14 248 1 q 212 -12 158 -12 q 98 -12 64 13 q 30 39 30 85 q 30 157 119 193 q 164 212 272 235 q 282 236 299 241 l 299 284 q 299 328 284 345 q 268 363 231 363 q 206 363 188 355 q 169 348 169 337 q 169 332 177 322 q 188 307 188 291 q 188 268 169 252 q 149 237 120 237 q 91 237 72 255 q 52 272 52 299 q 52 348 105 378 q 157 407 242 407 q 343 407 391 368 q 412 351 421 328 q 430 306 430 265 z m 299 196 l 255 186 q 210 175 190 155 q 169 136 169 102 q 169 76 184 60 q 198 44 222 44 q 258 44 278 72 q 299 101 299 149 z"},"L":{"x_min":0,"x_max":602,"ha":602,"o":"m 540 224 l 584 224 l 574 0 l 16 0 l 16 45 l 28 45 q 87 45 97 58 q 101 62 102 71 q 102 80 102 121 l 102 482 q 102 522 102 530 q 101 539 97 544 q 87 557 28 557 l 16 557 l 16 602 l 346 602 l 346 557 l 328 557 q 268 557 258 544 q 254 539 253 530 q 252 522 252 482 l 252 103 q 252 69 266 57 q 273 49 285 47 q 297 45 328 45 l 345 45 q 433 45 486 108 q 518 146 540 224 z"},"3":{"x_min":0,"x_max":478,"ha":478,"o":"m 292 307 q 349 299 380 282 q 408 265 425 232 q 442 200 442 161 q 442 121 425 85 q 408 50 378 30 q 318 -12 222 -12 q 132 -12 76 28 q 20 67 20 130 q 20 165 41 187 q 62 209 95 209 q 126 209 147 189 q 168 169 168 140 q 168 122 162 111 q 156 100 137 82 q 128 74 128 67 q 128 53 151 42 q 173 32 200 32 q 246 32 271 66 q 297 101 297 163 q 297 282 219 282 l 178 278 q 172 277 164 277 q 151 277 142 285 q 134 294 134 308 q 134 336 164 336 q 175 336 198 331 q 221 327 228 327 q 257 327 274 358 q 292 390 292 443 q 292 492 270 520 q 248 547 208 547 q 185 547 165 537 q 145 527 145 515 q 145 511 151 505 q 184 474 184 442 q 184 413 165 395 q 147 377 117 377 q 84 377 62 398 q 41 420 41 452 q 41 503 85 543 q 138 590 230 590 q 318 590 372 550 q 427 509 427 442 q 427 344 314 312 q 302 309 292 307 z"},";":{"x_min":0,"x_max":277,"ha":277,"o":"m 74 77 q 67 86 67 92 q 67 98 74 107 l 140 188 q 148 198 153 198 q 158 198 167 188 l 230 107 q 237 98 237 92 q 238 86 232 77 l 117 -118 q 106 -137 92 -131 q 78 -125 82 -105 l 111 10 q 115 27 107 37 z m 74 388 l 140 468 q 148 478 153 478 q 158 478 167 468 l 232 388 q 245 372 232 357 l 167 277 q 158 267 153 267 q 148 267 140 277 l 74 357 q 67 367 67 372 q 67 378 74 388 z"},"J":{"x_min":0,"x_max":540,"ha":540,"o":"m 445 482 l 445 233 q 445 159 428 115 q 411 70 372 38 q 308 -12 205 -12 q 112 -12 58 31 q 3 75 3 152 q 3 205 32 240 q 62 275 107 275 q 144 275 168 251 q 192 227 192 190 q 192 156 171 134 q 149 112 116 112 q 107 112 96 114 q 88 116 86 116 q 70 116 70 100 q 70 76 100 57 q 129 38 168 38 q 201 38 229 52 q 257 65 272 88 q 295 122 295 204 l 295 482 q 295 522 294 531 q 293 539 289 544 q 279 557 221 557 l 208 557 l 208 602 l 532 602 l 532 557 l 520 557 q 461 557 451 544 q 447 539 446 531 q 445 522 445 482 z"},"V":{"x_min":0,"x_max":632,"ha":632,"o":"m 358 172 l 476 468 q 483 487 483 500 q 483 533 454 548 q 438 557 402 557 l 402 602 l 648 602 l 648 557 q 572 549 533 451 l 342 -12 l 269 -12 l 67 499 q 52 535 37 546 q 22 557 -15 557 l -15 602 l 287 602 l 287 557 l 269 557 q 218 557 218 536 q 218 528 225 508 z"},"\"":{"x_min":0,"x_max":399,"ha":399,"o":"m 42 315 l 56 520 q 57 527 60 538 q 68 561 89 574 q 111 587 142 587 q 174 587 188 574 q 201 562 193 538 q 189 526 187 520 l 69 315 z m 231 315 l 246 520 q 247 527 250 538 q 258 561 280 574 q 302 587 333 587 q 364 587 378 574 q 392 561 384 538 q 382 533 376 520 l 258 315 z"},"7":{"x_min":0,"x_max":478,"ha":478,"o":"m 455 590 l 455 555 q 362 358 339 278 q 315 197 315 81 q 315 36 293 12 q 272 -12 232 -12 q 198 -12 177 11 q 156 33 156 70 q 156 119 200 205 q 208 220 306 372 l 362 457 q 258 454 252 454 q 240 454 158 457 q 152 458 142 458 q 121 458 112 443 q 103 428 92 373 l 83 336 l 38 341 l 66 590 q 171 578 265 578 q 382 578 455 590 z"},"S":{"x_min":0,"x_max":556,"ha":556,"o":"m 490 608 l 501 392 l 457 392 q 382 571 252 571 q 202 571 171 546 q 139 522 139 483 q 139 432 196 412 q 217 404 281 392 l 321 382 q 429 358 478 312 q 528 265 528 186 q 528 98 466 43 q 405 -12 308 -12 q 211 -12 137 43 l 85 -6 l 48 -6 l 42 230 l 85 230 q 119 136 178 83 q 237 31 308 31 q 362 31 395 58 q 428 84 428 128 q 428 175 391 195 q 368 208 301 220 l 249 230 q 151 248 97 300 q 43 352 43 428 q 43 512 103 563 q 162 614 259 614 q 342 614 409 569 l 452 608 z"},"}":{"x_min":0,"x_max":324,"ha":324,"o":"m 242 274 l 242 238 q 216 231 204 223 q 192 215 187 199 q 180 182 180 127 l 180 35 q 180 -43 150 -68 q 125 -90 71 -90 l 26 -90 l 26 -52 q 58 -48 69 -31 q 75 -22 76 -11 q 78 -1 78 53 l 78 152 q 78 200 95 222 q 113 243 162 256 q 113 268 95 290 q 78 312 78 360 l 78 458 l 78 505 q 78 534 66 548 q 54 561 26 563 l 26 602 l 71 602 q 125 602 150 579 q 180 555 180 477 l 180 385 q 180 344 182 331 q 183 318 190 306 q 197 293 208 287 q 218 280 242 274 z"},"Z":{"x_min":0,"x_max":556,"ha":556,"o":"m 528 602 l 528 555 l 194 46 l 268 46 q 344 46 377 62 q 417 82 445 126 q 473 170 484 230 l 528 230 l 515 0 l 20 0 l 20 48 l 354 556 l 292 556 q 226 556 191 541 q 156 527 128 488 q 102 453 83 392 l 41 392 l 51 602 z"},"x":{"x_min":0,"x_max":509,"ha":509,"o":"m 308 227 l 423 90 q 450 59 462 51 q 475 43 498 42 l 498 0 l 237 0 l 237 42 l 242 42 q 276 42 276 62 q 276 70 267 80 l 218 139 l 168 90 q 156 78 156 66 q 156 42 195 42 l 206 42 l 206 0 l 11 0 l 11 42 q 44 43 85 81 l 186 177 l 67 319 q 51 338 40 344 q 30 350 11 352 l 11 394 l 258 394 l 258 352 l 248 352 q 221 352 221 338 q 221 331 230 321 l 278 263 l 320 304 q 338 321 338 332 q 338 352 304 352 l 285 352 l 285 394 l 490 394 l 490 352 q 442 352 395 308 z"},")":{"x_min":0,"x_max":324,"ha":324,"o":"m 42 572 l 42 614 q 125 571 179 502 q 263 394 263 258 q 263 112 167 -2 q 118 -59 42 -98 l 42 -57 q 76 -32 94 -10 q 112 13 127 51 q 159 132 159 258 q 159 394 120 482 q 94 537 42 572 z"},"&":{"x_min":0,"x_max":710,"ha":710,"o":"m 664 340 l 664 295 q 620 293 599 279 q 578 264 553 217 q 525 166 501 132 q 542 78 586 78 q 628 78 643 148 l 685 138 q 681 97 660 62 q 637 22 606 5 q 576 -12 532 -12 q 455 -12 400 42 q 322 -13 224 -13 q 128 -13 78 39 q 32 87 32 149 q 32 245 132 304 q 158 320 201 339 q 168 407 168 459 q 168 525 218 570 q 267 614 348 614 q 417 614 458 581 q 500 548 500 495 q 500 439 452 401 q 418 373 354 348 q 386 293 421 240 q 456 188 471 172 q 511 220 511 254 q 511 275 493 285 q 476 294 437 295 l 437 340 z m 221 298 q 174 268 174 215 q 174 181 193 142 q 236 56 312 56 q 341 56 367 74 q 275 186 221 298 z m 331 387 q 342 392 344 392 q 408 425 408 491 q 408 525 390 548 q 372 571 343 571 q 318 571 302 553 q 285 535 285 508 q 285 466 331 387 z"},"_":{"x_min":0,"x_max":417,"ha":417,"o":"m 0 -48 l 417 -48 l 417 -123 l 0 -123 z"},"v":{"x_min":0,"x_max":509,"ha":509,"o":"m 298 117 l 358 270 q 373 307 373 320 q 373 338 358 345 q 343 352 309 352 l 309 394 l 498 394 l 498 352 l 495 352 q 470 352 454 337 q 438 321 419 279 l 291 -12 l 220 -12 l 67 308 q 53 336 43 343 q 33 351 10 352 l 10 394 l 245 394 l 245 352 q 202 352 202 333 q 202 325 208 312 z"},"O":{"x_min":0,"x_max":694,"ha":694,"o":"m 348 614 q 468 614 550 543 q 602 499 632 432 q 662 365 662 292 q 662 142 550 52 q 468 -12 343 -12 q 208 -12 120 73 q 32 159 32 292 q 32 365 62 432 q 92 498 144 543 q 225 614 348 614 z m 348 571 q 277 571 242 512 q 199 440 199 308 q 199 175 242 95 q 276 31 348 31 q 420 31 458 98 q 495 165 495 292 q 495 429 452 507 q 416 571 348 571 z"},"(":{"x_min":0,"x_max":324,"ha":324,"o":"m 282 -57 l 282 -98 q 198 -55 144 14 q 60 122 60 258 q 60 404 157 518 q 206 575 282 614 l 282 572 q 248 548 229 525 q 211 502 197 465 q 164 383 164 258 q 164 122 203 34 q 229 -21 282 -57 z"},"C":{"x_min":0,"x_max":648,"ha":648,"o":"m 582 611 l 590 372 l 546 368 q 518 472 471 521 q 424 571 355 571 q 278 571 239 504 q 199 438 199 308 q 199 171 240 105 q 281 39 366 39 q 438 39 486 87 q 534 134 551 221 l 602 208 q 578 97 514 42 q 449 -12 338 -12 q 196 -12 112 79 q 33 167 33 293 q 33 433 122 524 q 211 614 348 614 q 392 614 426 605 q 460 595 501 570 l 546 611 z"},"W":{"x_min":0,"x_max":818,"ha":818,"o":"m 592 215 l 665 452 q 676 488 676 503 q 676 536 648 549 q 633 556 601 557 l 601 602 l 811 602 l 811 557 q 773 549 756 528 q 739 507 721 445 l 576 -12 l 515 -12 l 411 327 l 301 -12 l 238 -12 l 68 508 q 58 538 47 548 q 35 557 7 557 l 5 557 l 5 602 l 263 602 l 263 557 q 234 555 224 551 q 214 547 214 536 q 214 527 221 508 l 318 209 l 384 418 l 354 512 q 345 539 335 547 q 325 555 301 557 l 301 602 l 548 602 l 548 557 q 518 555 508 550 q 498 546 498 534 q 498 527 503 512 z"},"A":{"x_min":0,"x_max":632,"ha":632,"o":"m 292 614 l 356 614 l 570 98 q 583 66 598 56 q 612 47 648 45 l 648 0 l 356 0 l 356 45 l 370 46 q 398 46 408 50 q 418 54 418 66 q 418 78 408 100 l 377 182 l 169 182 l 156 150 q 142 120 142 102 q 142 74 162 61 q 181 48 226 45 l 226 0 l -15 0 l -15 45 q 22 49 48 77 q 75 105 103 172 z m 275 437 l 191 238 l 356 238 z"},"f":{"x_min":0,"x_max":324,"ha":324,"o":"m 319 394 l 319 344 l 215 344 l 215 120 l 215 81 q 215 56 226 49 q 238 42 278 42 l 292 42 l 292 0 l 18 0 l 18 42 l 21 42 q 62 42 73 49 q 84 56 84 81 l 84 120 l 84 344 l 12 344 l 12 394 l 84 394 l 84 405 q 84 498 134 554 q 184 611 266 611 q 318 611 352 585 q 387 559 387 520 q 387 491 368 471 q 348 452 320 452 q 293 452 275 468 q 258 485 258 509 q 258 537 278 553 q 282 558 282 561 q 282 568 269 568 q 257 568 244 558 q 231 548 225 534 q 215 512 215 442 l 215 394 z"},"Q":{"x_min":0,"x_max":694,"ha":694,"o":"m 393 -21 l 393 -8 q 368 -12 341 -12 q 201 -12 112 89 q 32 179 32 302 q 32 435 122 525 q 212 614 347 614 q 477 614 568 523 q 658 432 658 302 q 658 222 621 151 q 583 81 517 37 q 540 -33 554 -56 q 568 -79 588 -79 q 607 -79 616 -65 q 625 -50 628 -15 l 673 -15 l 673 -22 q 673 -82 633 -119 q 593 -157 530 -157 q 465 -157 429 -121 q 393 -86 393 -21 z m 471 146 q 492 201 492 308 q 492 418 459 492 q 425 571 345 571 q 198 571 198 316 q 198 211 216 158 q 230 193 246 208 q 281 242 336 242 q 403 242 446 192 q 458 177 471 146 z m 395 44 q 398 72 398 83 q 398 137 378 165 q 359 194 322 194 q 290 194 270 170 q 249 147 249 110 q 249 74 275 52 q 301 31 342 31 q 368 31 395 44 z"},"w":{"x_min":0,"x_max":741,"ha":741,"o":"m 535 128 l 593 270 q 605 298 605 313 q 605 331 589 341 q 573 352 548 352 l 542 352 l 542 394 l 730 394 l 730 352 q 702 350 686 335 q 670 321 652 281 l 521 -12 l 458 -12 l 369 208 l 274 -12 l 211 -12 l 75 305 q 63 332 52 341 q 40 351 16 352 l 16 394 l 246 394 l 246 352 q 221 351 213 347 q 205 343 205 332 q 205 328 211 312 l 283 128 l 343 270 l 322 320 q 314 339 305 345 q 295 352 272 352 l 272 394 l 504 394 l 504 352 l 498 352 q 453 352 453 332 q 453 325 458 314 z"},"-":{"x_min":0,"x_max":352,"ha":352,"o":"m 318 294 l 294 199 q 292 192 289 189 q 287 187 278 187 l 42 187 q 30 187 28 190 q 26 194 29 203 l 53 298 q 55 306 58 308 q 60 311 68 311 l 305 311 q 318 311 319 307 q 321 303 318 294 z"},"E":{"x_min":0,"x_max":632,"ha":632,"o":"m 572 602 l 578 385 l 534 385 q 514 455 486 495 q 441 557 345 557 l 322 557 q 272 557 258 538 q 250 526 250 485 l 250 334 l 264 334 q 313 334 343 365 q 372 395 379 452 l 424 452 l 424 170 l 379 170 q 372 228 343 258 q 313 288 264 288 l 250 288 l 250 103 q 250 69 263 57 q 271 49 282 47 q 294 45 325 45 l 350 45 q 426 45 472 88 q 519 131 545 224 l 589 224 l 579 0 l 13 0 l 13 45 l 26 45 q 84 45 94 58 q 98 62 99 71 q 100 80 100 120 l 100 482 q 100 522 99 530 q 98 539 94 544 q 84 557 26 557 l 13 557 l 13 602 z"},"s":{"x_min":0,"x_max":417,"ha":417,"o":"m 366 398 l 369 267 l 330 267 q 299 318 268 340 q 237 363 197 363 q 166 363 146 350 q 127 336 127 315 q 127 299 137 291 q 148 282 178 274 l 253 256 q 298 245 317 237 q 336 228 352 214 q 388 182 388 129 q 388 67 342 27 q 295 -12 221 -12 q 152 -12 103 17 l 71 2 l 36 2 l 32 146 l 69 146 q 128 31 221 31 q 254 31 273 44 q 292 58 292 80 q 292 116 234 128 l 173 142 q 103 157 70 189 q 35 222 35 272 q 35 331 80 369 q 126 407 196 407 q 253 407 299 380 l 330 398 z"},">":{"x_min":0,"x_max":505,"ha":505,"o":"m 40 337 l 40 441 l 464 248 l 464 172 l 40 -21 l 40 83 l 313 211 z"},"l":{"x_min":0,"x_max":293,"ha":293,"o":"m 213 614 l 213 120 l 213 81 q 213 55 226 48 q 236 42 270 42 l 276 42 l 276 0 l 16 0 l 16 42 l 19 42 q 60 42 71 49 q 82 56 82 81 l 82 120 l 82 482 q 82 538 75 548 q 68 559 29 559 l 13 559 l 13 602 z"},"8":{"x_min":0,"x_max":478,"ha":478,"o":"m 336 342 q 455 295 455 179 q 455 93 393 41 q 331 -12 230 -12 q 135 -12 79 28 q 22 68 22 136 q 22 211 87 244 q 100 252 138 263 q 41 315 41 412 q 41 493 99 542 q 157 590 253 590 q 334 590 384 554 q 434 518 434 461 q 434 401 383 366 q 369 356 336 342 z m 293 363 l 295 365 q 330 396 330 452 q 330 496 305 521 q 281 547 239 547 q 201 547 175 524 q 149 501 149 467 q 149 439 167 416 q 184 392 212 382 q 237 372 289 360 q 291 361 292 362 z m 182 241 q 153 217 142 195 q 131 172 131 138 q 131 88 160 60 q 188 32 239 32 q 288 32 320 59 q 352 87 352 129 q 352 161 335 180 q 318 198 279 212 q 258 219 182 241 z"},"\\":{"x_min":0,"x_max":505,"ha":505,"o":"m 103 614 l 462 0 l 401 0 l 42 614 z"},"e":{"x_min":0,"x_max":478,"ha":478,"o":"m 450 190 l 171 190 q 172 126 192 94 q 224 44 284 44 q 325 44 355 66 q 384 88 409 137 l 450 120 q 396 -12 252 -12 q 154 -12 94 38 q 63 65 45 107 q 27 149 27 193 q 27 280 87 342 q 149 407 251 407 q 342 407 396 352 q 450 297 450 203 z m 172 236 l 297 236 q 309 236 314 242 q 319 248 319 262 q 319 363 253 363 q 216 363 194 329 q 172 295 172 236 z"},"b":{"x_min":0,"x_max":540,"ha":540,"o":"m 200 614 l 200 344 q 249 407 329 407 q 408 407 459 350 q 510 293 510 204 q 510 108 451 48 q 392 -12 297 -12 q 208 -12 152 55 l 98 -12 l 58 -12 q 69 52 69 172 l 69 482 q 69 538 62 548 q 54 559 16 559 l 0 559 l 0 602 z m 288 344 q 199 344 199 177 q 199 106 221 68 q 242 31 283 31 q 366 31 366 194 q 366 344 288 344 z"},"%":{"x_min":0,"x_max":694,"ha":694,"o":"m 572 602 l 227 0 l 155 0 l 430 482 q 406 475 368 474 q 330 472 308 478 q 308 441 292 400 q 276 358 249 327 q 196 262 125 262 q 77 262 45 292 q 14 322 14 369 q 14 412 40 463 q 65 513 102 546 q 154 590 210 590 q 258 590 288 550 q 321 534 365 534 q 412 534 444 550 q 477 566 504 602 z m 215 523 q 197 518 186 507 q 176 496 158 464 q 118 394 118 362 q 118 347 128 337 q 138 327 152 327 q 190 327 224 373 q 258 420 258 472 q 258 484 253 498 q 230 507 215 523 z m 582 339 q 627 339 655 310 q 684 281 684 236 q 684 198 667 155 q 650 111 621 74 q 570 12 501 12 q 452 12 420 41 q 388 71 388 117 q 388 193 446 266 q 507 339 582 339 z m 595 272 q 568 272 540 225 q 492 147 492 111 q 492 96 502 85 q 512 75 526 75 q 564 75 599 122 q 633 168 633 221 q 633 242 622 257 q 611 272 595 272 z"},"m":{"x_min":0,"x_max":802,"ha":802,"o":"m 207 394 l 207 328 q 257 407 340 407 q 382 407 413 387 q 444 367 458 332 q 487 372 518 389 q 548 407 588 407 q 644 407 682 372 q 719 338 719 286 l 719 120 l 719 81 q 719 57 730 50 q 742 42 782 42 l 785 42 l 785 0 l 540 0 l 540 42 q 572 43 580 50 q 588 57 588 81 l 588 120 l 588 255 q 588 329 542 329 q 508 329 487 302 q 467 276 467 232 l 467 120 l 467 81 q 467 57 475 50 q 483 43 515 42 l 515 0 l 288 0 l 288 42 q 319 43 328 50 q 336 57 336 82 l 336 120 l 336 252 q 336 292 325 311 q 314 329 290 329 q 256 329 235 302 q 214 276 214 232 l 214 120 l 214 81 q 214 57 222 50 q 231 43 262 42 l 262 0 l 17 0 l 17 42 l 21 42 q 61 42 72 49 q 83 56 83 82 l 83 120 l 83 268 q 83 323 76 335 q 68 346 30 346 l 17 346 l 17 388 z"},"#":{"x_min":0,"x_max":478,"ha":478,"o":"m 112 183 l 34 183 l 34 252 l 122 252 l 136 342 l 56 342 l 56 412 l 145 412 l 170 583 l 245 583 l 220 412 l 292 412 l 316 583 l 391 583 l 367 412 l 444 412 l 444 342 l 357 342 l 344 252 l 422 252 l 422 183 l 334 183 l 308 0 l 232 0 l 259 183 l 188 183 l 161 0 l 86 0 z m 211 342 l 198 252 l 268 252 l 282 342 z"},",":{"x_min":0,"x_max":274,"ha":274,"o":"m 74 77 q 67 86 67 92 q 67 98 74 107 l 140 188 q 148 198 153 198 q 158 198 167 188 l 230 107 q 237 98 237 92 q 238 86 232 77 l 117 -118 q 106 -137 92 -131 q 78 -125 82 -105 l 111 10 q 115 27 107 37 z"},"n":{"x_min":0,"x_max":571,"ha":571,"o":"m 208 394 l 208 321 q 238 368 272 387 q 307 407 356 407 q 424 407 459 367 q 491 332 491 259 l 491 120 l 491 82 q 491 56 502 49 q 513 42 553 42 l 557 42 l 557 0 l 302 0 l 302 42 q 339 42 350 50 q 360 57 360 81 l 360 120 l 360 248 q 360 329 299 329 q 277 329 257 316 q 237 302 227 280 q 213 253 213 201 l 213 120 l 213 81 q 213 57 224 50 q 234 42 271 42 l 271 0 l 17 0 l 17 42 l 20 42 q 60 42 71 49 q 82 56 82 82 l 82 120 l 82 265 q 82 323 75 335 q 68 346 29 346 l 17 346 l 17 388 z"},"h":{"x_min":0,"x_max":571,"ha":571,"o":"m 213 614 l 213 330 q 263 407 355 407 q 422 407 458 367 q 489 332 489 259 l 489 120 l 489 82 q 489 56 500 49 q 512 42 552 42 l 555 42 l 555 0 l 301 0 l 301 42 q 338 42 348 50 q 358 57 358 81 l 358 120 l 358 248 q 358 329 299 329 q 276 329 256 316 q 236 302 226 280 q 213 252 213 201 l 213 120 l 213 82 q 213 56 223 49 q 233 42 270 42 l 270 0 l 16 0 l 16 42 l 19 42 q 60 42 71 49 q 82 56 82 81 l 82 120 l 82 478 q 82 538 75 548 q 68 559 29 559 l 13 559 l 13 602 z"},"z":{"x_min":0,"x_max":448,"ha":448,"o":"m 412 394 l 412 354 l 188 42 l 239 42 q 282 42 298 48 q 314 53 331 73 q 356 104 372 158 l 412 158 l 404 0 l 29 0 l 29 37 l 256 352 l 213 352 q 170 352 153 348 q 136 343 122 329 q 106 312 85 244 l 42 244 l 52 394 z"},"B":{"x_min":0,"x_max":648,"ha":648,"o":"m 14 602 l 336 602 q 411 602 448 595 q 486 588 520 568 q 551 552 568 521 q 586 490 586 454 q 586 377 509 340 q 479 326 422 317 q 480 309 518 291 q 613 248 613 158 q 613 116 589 80 q 565 43 525 25 q 467 0 352 0 l 14 0 l 14 45 l 27 45 q 85 45 95 58 q 99 62 100 71 q 101 80 101 120 l 101 482 q 101 522 100 531 q 99 539 95 545 q 84 557 27 557 l 14 557 z m 251 332 l 292 332 q 363 332 394 357 q 435 388 435 451 q 435 502 406 530 q 378 557 322 557 l 298 557 q 272 557 261 546 q 251 538 251 508 z m 251 286 l 251 98 q 251 68 253 62 q 261 45 302 45 l 327 45 q 385 45 415 70 q 454 102 454 167 q 454 235 408 266 q 378 286 308 286 z"},"K":{"x_min":0,"x_max":679,"ha":679,"o":"m 319 282 l 249 208 l 249 120 q 249 80 250 71 q 251 62 255 58 q 265 45 324 45 l 337 45 l 337 0 l 12 0 l 12 45 l 25 45 q 83 45 93 58 q 98 62 98 71 q 99 80 99 120 l 99 482 q 99 522 98 530 q 98 539 93 544 q 83 557 25 557 l 12 557 l 12 602 l 337 602 l 337 557 l 324 557 q 265 557 255 544 q 251 539 250 530 q 249 522 249 482 l 249 287 l 433 482 q 461 512 461 528 q 461 557 398 557 l 378 557 l 378 602 l 659 602 l 659 557 q 618 554 581 533 q 544 512 490 458 l 421 386 l 594 109 q 622 64 635 55 q 647 47 682 45 l 682 0 l 378 0 l 378 45 l 389 45 q 446 45 446 64 q 446 73 436 91 z"},"R":{"x_min":0,"x_max":679,"ha":679,"o":"m 253 289 l 253 121 q 253 80 254 72 q 255 63 259 58 q 270 46 328 46 l 350 46 l 350 1 l 17 1 l 17 46 l 29 46 q 87 46 98 58 q 102 63 102 72 q 103 80 103 121 l 103 482 q 103 522 102 531 q 102 539 98 545 q 87 557 29 557 l 17 557 l 17 602 l 372 602 q 489 602 537 572 q 604 528 604 451 q 604 366 524 325 q 498 312 438 301 q 492 282 518 252 q 545 221 554 164 l 560 132 l 563 109 q 568 77 573 70 q 582 58 598 58 q 634 58 636 137 l 681 137 l 681 127 q 681 60 644 24 q 607 -12 539 -12 q 428 -12 406 87 q 402 111 394 191 q 392 226 388 239 q 384 252 374 264 q 352 289 300 289 z m 253 335 l 299 335 q 382 335 414 359 q 445 383 445 447 q 445 503 418 530 q 391 557 332 557 l 312 557 q 272 557 263 548 q 253 539 253 503 z"},"T":{"x_min":0,"x_max":602,"ha":602,"o":"m 577 602 l 589 376 l 545 376 q 528 467 496 509 q 458 558 406 558 q 388 558 382 552 q 376 546 376 524 l 376 120 q 376 80 377 71 q 378 62 382 58 q 392 45 451 45 l 469 45 l 469 0 l 132 0 l 132 45 l 151 45 q 210 45 220 58 q 224 62 225 71 q 226 80 226 120 l 226 524 q 226 546 220 552 q 214 558 196 558 q 138 558 99 499 q 71 458 57 376 l 12 376 l 25 602 z"},"P":{"x_min":0,"x_max":632,"ha":632,"o":"m 257 258 l 257 120 q 257 79 258 71 q 258 62 262 57 q 273 45 332 45 l 350 45 l 350 0 l 20 0 l 20 45 l 32 45 q 90 45 101 57 q 105 62 106 71 q 107 79 107 120 l 107 481 q 107 522 106 530 q 105 538 101 544 q 90 556 32 556 l 20 556 l 20 602 l 351 602 q 465 602 528 572 q 568 554 590 518 q 612 481 612 434 q 612 258 350 258 z m 257 304 l 305 304 q 386 304 419 334 q 452 363 452 435 q 452 498 423 527 q 395 556 336 556 l 302 556 q 274 556 265 546 q 257 537 257 506 z"},"|":{"x_min":0,"x_max":505,"ha":505,"o":"m 302 602 l 302 0 l 202 0 l 202 602 z"},"t":{"x_min":0,"x_max":355,"ha":355,"o":"m 318 394 l 318 344 l 209 344 l 209 130 q 209 88 215 73 q 222 58 240 58 q 266 58 280 84 q 293 109 292 155 l 337 155 q 338 147 338 136 q 338 76 304 33 q 270 -12 197 -12 q 123 -12 96 33 q 85 51 82 72 q 78 94 78 145 l 78 344 l 19 344 l 19 388 q 137 401 157 559 l 209 559 l 209 394 z"},"M":{"x_min":0,"x_max":818,"ha":818,"o":"m 282 602 l 411 243 l 532 602 l 804 602 l 804 557 l 795 557 q 736 557 726 544 q 722 539 721 530 q 720 522 720 482 l 720 120 q 720 80 721 71 q 722 62 726 58 q 736 45 795 45 l 804 45 l 804 0 l 486 0 l 486 45 l 495 45 q 554 45 564 58 q 568 62 569 71 q 570 80 570 120 l 570 536 l 386 0 l 342 0 l 153 528 l 153 181 q 153 125 158 103 q 162 82 175 68 q 195 47 245 45 l 245 0 l 8 0 l 8 45 q 56 46 76 68 q 89 82 93 104 q 98 126 98 181 l 98 482 q 98 522 97 530 q 96 539 92 544 q 82 557 22 557 l 13 557 l 13 602 z"},"g":{"x_min":0,"x_max":509,"ha":509,"o":"m 219 81 l 277 81 q 363 81 401 68 q 432 59 451 32 q 470 5 470 -30 q 470 -97 408 -132 q 345 -168 228 -168 q 25 -168 25 -87 q 25 -58 48 -38 q 72 -19 113 -12 q 38 8 38 65 q 38 129 134 147 q 42 178 42 264 q 42 326 98 366 q 153 407 239 407 q 302 407 351 382 q 403 448 458 448 q 485 448 502 433 q 519 418 519 394 q 519 372 504 356 q 489 341 468 341 q 451 341 437 352 q 422 364 422 378 l 422 382 q 422 386 418 386 q 404 386 388 362 q 415 340 426 319 q 438 298 438 268 q 438 230 418 200 q 398 169 361 152 q 318 132 243 132 l 228 132 q 192 132 179 127 q 165 121 165 105 q 165 90 175 85 q 186 81 219 81 z m 242 363 q 178 363 178 272 q 178 229 191 202 q 204 172 241 172 q 270 172 286 198 q 302 222 302 267 q 302 363 242 363 z m 273 -36 l 164 -36 q 133 -49 133 -77 q 133 -100 160 -112 q 186 -125 234 -125 q 362 -125 362 -74 q 362 -55 349 -47 q 338 -40 325 -38 q 312 -36 273 -36 z"},"j":{"x_min":0,"x_max":293,"ha":293,"o":"m 153 614 q 183 614 205 592 q 227 571 227 541 q 227 510 205 488 q 183 467 152 467 q 122 467 101 489 q 79 511 79 541 q 79 571 101 592 q 122 614 153 614 z m 223 394 l 223 91 q 223 -28 194 -84 q 175 -122 135 -145 q 96 -168 48 -168 q -2 -168 -35 -145 q -68 -122 -68 -85 q -68 -58 -50 -40 q -32 -22 -3 -22 q 20 -22 35 -38 q 51 -54 51 -78 q 51 -104 27 -120 q 33 -129 48 -129 q 92 -129 92 -47 l 92 274 q 92 324 84 335 q 76 346 39 346 l 12 346 l 12 388 z"},"i":{"x_min":0,"x_max":308,"ha":308,"o":"m 219 394 l 219 120 l 219 81 q 219 57 230 50 q 241 42 279 42 l 284 42 l 284 0 l 23 0 l 23 42 l 27 42 q 66 42 77 50 q 88 57 88 82 l 88 120 l 88 268 q 88 323 81 335 q 73 346 35 346 l 23 346 l 23 388 z m 152 614 q 182 614 203 592 q 225 571 225 541 q 225 510 203 488 q 182 467 150 467 q 121 467 99 489 q 78 511 78 541 q 78 571 99 592 q 121 614 152 614 z"},"y":{"x_min":0,"x_max":509,"ha":509,"o":"m 299 132 l 368 284 q 376 302 376 318 q 376 352 320 352 l 311 352 l 311 394 l 498 394 l 498 352 q 472 351 457 336 q 441 322 422 283 l 277 -31 q 243 -104 204 -138 q 164 -172 112 -172 q 65 -172 37 -150 q 8 -129 8 -95 q 8 -64 29 -43 q 50 -22 81 -22 q 108 -22 126 -38 q 143 -54 143 -79 q 143 -97 137 -108 q 136 -108 136 -110 q 136 -115 143 -115 q 181 -115 214 -49 l 233 -13 l 62 318 q 52 339 43 345 q 34 351 12 352 l 12 394 l 248 394 l 248 352 l 233 352 q 204 352 204 334 q 204 325 211 312 z"},"@":{"x_min":0,"x_max":622,"ha":622,"o":"m 537 158 l 594 158 q 578 119 541 82 q 448 -12 322 -12 q 196 -12 108 79 q 20 171 20 302 q 20 432 109 523 q 198 614 324 614 q 440 614 521 539 q 602 463 602 355 q 602 264 540 194 q 479 123 400 123 q 371 123 353 136 q 336 149 336 170 q 336 172 338 183 q 304 121 243 121 q 197 121 165 157 q 133 192 133 245 q 133 330 190 407 q 242 478 321 478 q 348 478 365 468 q 382 458 398 435 l 408 463 l 495 463 l 418 223 q 412 202 412 192 q 412 174 432 174 q 457 174 486 199 q 548 252 548 349 q 548 442 485 503 q 422 563 323 563 q 216 563 145 490 q 73 416 73 305 q 73 192 145 115 q 218 38 324 38 q 391 38 446 69 q 501 100 537 158 z m 338 434 q 300 434 267 373 q 219 289 219 213 q 219 164 258 164 q 298 164 328 233 q 344 273 361 327 q 378 381 378 397 q 378 412 366 423 q 354 434 338 434 z"},".":{"x_min":0,"x_max":277,"ha":277,"o":"m 74 107 l 140 188 q 148 198 153 198 q 158 198 167 188 l 232 107 q 245 92 232 77 l 167 -4 q 158 -14 153 -14 q 148 -14 140 -4 l 74 77 q 67 86 67 92 q 67 98 74 107 z"},"p":{"x_min":0,"x_max":556,"ha":556,"o":"m 212 394 l 212 341 q 240 377 270 392 q 299 407 342 407 q 422 407 474 350 q 527 293 527 208 q 527 114 470 51 q 414 -12 330 -12 q 261 -12 212 42 l 212 -48 l 212 -88 q 212 -112 223 -120 q 234 -127 275 -127 l 284 -127 l 284 -168 l 15 -168 l 15 -127 l 18 -127 q 58 -127 70 -120 q 81 -112 81 -88 l 81 -48 l 81 265 q 80 324 73 335 q 66 346 28 346 l 15 346 l 15 388 z m 305 344 q 259 344 235 305 q 211 265 211 191 q 211 120 234 82 q 257 44 298 44 q 338 44 360 84 q 382 123 382 193 q 382 344 305 344 z"},"X":{"x_min":0,"x_max":602,"ha":602,"o":"m 359 344 l 507 129 q 545 73 562 60 q 579 47 612 45 l 612 0 l 312 0 l 312 45 q 343 46 355 50 q 368 54 368 65 q 368 80 357 93 l 266 223 l 192 130 q 176 109 176 88 q 176 67 197 57 q 218 47 266 45 l 266 0 l -10 0 l -10 45 q 27 47 50 61 q 74 76 110 120 l 232 271 l 62 514 q 44 539 31 547 q 18 555 -10 557 l -10 602 l 288 602 l 288 557 q 252 555 242 552 q 232 548 232 537 q 232 527 240 515 l 328 389 l 386 461 q 414 494 414 514 q 414 557 334 557 l 334 602 l 591 602 l 591 557 q 558 554 534 540 q 509 526 481 492 z"},"*":{"x_min":0,"x_max":417,"ha":417,"o":"m 199 412 l 186 404 q 168 393 159 384 q 150 375 132 349 q 113 320 86 320 q 70 320 58 331 q 47 342 47 358 q 47 387 74 399 q 88 404 120 406 q 150 408 175 422 l 188 431 l 175 438 q 156 449 144 452 q 132 455 100 457 q 76 458 61 471 q 47 484 47 503 q 47 519 58 530 q 70 542 87 542 q 105 542 120 528 q 127 522 143 497 q 162 472 186 458 l 199 449 l 199 465 q 199 485 196 497 q 192 508 178 539 q 169 555 169 570 q 169 588 181 601 q 192 614 209 614 q 226 614 238 601 q 250 588 250 569 q 250 556 233 521 q 220 495 220 465 l 220 449 l 233 458 q 252 469 261 478 q 269 487 287 512 q 306 542 333 542 q 350 542 361 530 q 372 519 372 503 q 372 477 345 462 q 336 458 299 455 q 272 454 244 438 l 231 431 l 244 423 q 263 412 275 410 q 288 407 318 405 q 342 403 358 390 q 372 377 372 358 q 372 342 362 331 q 351 321 335 321 q 318 321 308 329 q 297 338 276 366 q 259 389 233 404 l 220 412 l 220 397 q 220 377 223 365 q 227 352 241 322 q 249 307 249 292 q 249 273 238 260 q 226 248 209 248 q 192 248 181 260 q 169 273 169 292 q 169 305 186 341 q 199 367 199 397 z"},"Y":{"x_min":0,"x_max":602,"ha":602,"o":"m 350 330 l 433 478 q 445 502 445 517 q 445 535 428 546 q 412 557 384 557 l 367 557 l 367 602 l 612 602 l 612 557 q 545 552 501 479 l 376 265 l 376 120 q 376 80 377 71 q 378 62 382 58 q 392 45 451 45 l 469 45 l 469 0 l 132 0 l 132 45 l 151 45 q 210 45 220 58 q 224 62 225 71 q 226 80 226 120 l 226 254 l 56 527 q 44 545 31 551 q 18 557 -10 557 l -10 602 l 290 602 l 290 557 l 277 557 q 230 557 230 538 q 230 528 240 512 z"},"c":{"x_min":0,"x_max":463,"ha":463,"o":"m 396 148 l 439 133 q 422 78 389 44 q 338 -12 250 -12 q 149 -12 88 43 q 26 99 26 191 q 26 285 93 346 q 160 407 264 407 q 340 407 385 376 q 430 345 430 293 q 430 262 410 242 q 389 222 355 222 q 325 222 306 240 q 287 257 287 283 q 287 302 304 324 q 313 335 313 340 q 313 350 300 357 q 288 363 269 363 q 222 363 196 322 q 170 280 170 206 q 170 128 198 86 q 226 44 277 44 q 332 44 364 87 q 382 110 396 148 z"},"!":{"x_min":0,"x_max":272,"ha":272,"o":"m 69 108 l 124 190 q 132 201 136 201 q 140 201 148 190 l 203 108 q 214 92 203 76 l 148 -7 q 141 -18 136 -18 q 132 -18 124 -7 l 69 76 q 62 86 62 92 q 62 98 69 108 z m 163 270 l 208 472 q 214 501 214 527 q 214 614 137 614 q 58 614 58 528 q 58 499 64 472 l 108 270 q 111 259 119 250 q 131 237 137 237 q 142 237 153 250 q 162 260 163 270 z"},"/":{"x_min":0,"x_max":232,"ha":232,"o":"m 190 614 l 252 614 l 42 -12 l -19 -12 z"},"[":{"x_min":0,"x_max":324,"ha":324,"o":"m 282 602 l 282 560 l 172 560 l 172 -48 l 282 -48 l 282 -90 l 70 -90 l 70 602 z"},"6":{"x_min":0,"x_max":478,"ha":478,"o":"m 168 301 q 194 331 222 343 q 250 356 290 356 q 364 356 411 308 q 458 261 458 186 q 458 100 398 44 q 338 -12 246 -12 q 142 -12 81 64 q 24 134 24 255 q 24 402 96 495 q 168 590 285 590 q 357 590 399 558 q 442 527 442 473 q 442 439 421 419 q 400 398 364 398 q 332 398 311 416 q 291 434 291 462 q 291 490 308 512 q 314 520 314 528 q 314 547 278 547 q 236 547 208 500 q 181 452 172 364 q 168 325 168 301 z m 247 293 q 223 294 205 279 q 187 263 180 237 q 173 206 173 162 q 173 98 192 62 q 210 28 244 28 q 312 28 312 177 q 312 291 247 293 z"},"r":{"x_min":0,"x_max":432,"ha":432,"o":"m 201 394 l 201 293 q 245 407 339 407 q 379 407 405 383 q 431 359 431 322 q 431 292 410 271 q 390 251 359 251 q 332 251 315 268 q 297 286 297 312 q 297 332 311 352 q 272 340 248 298 q 212 236 212 137 l 212 120 l 212 82 q 212 56 224 49 q 235 42 275 42 l 293 42 l 293 0 l 15 0 l 15 42 l 18 42 q 58 42 70 49 q 81 56 81 82 l 81 120 l 81 265 q 81 323 73 335 q 66 346 28 346 l 15 346 l 15 388 z"},"2":{"x_min":0,"x_max":478,"ha":478,"o":"m 398 222 l 442 222 l 423 -3 q 390 0 372 0 l 59 0 q 45 0 16 -3 l 16 36 q 48 81 80 120 q 113 159 183 232 q 250 303 274 348 q 298 393 298 445 q 298 492 274 517 q 250 542 207 542 q 175 542 148 525 q 120 508 120 488 q 120 478 133 472 q 162 458 175 440 q 188 423 188 397 q 188 364 168 345 q 149 326 117 326 q 79 326 57 352 q 34 378 34 422 q 34 492 92 541 q 150 590 235 590 q 323 590 382 545 q 440 500 440 433 q 440 372 395 312 q 377 289 347 267 q 317 244 229 188 q 182 156 146 125 l 307 125 q 347 126 355 127 q 363 128 369 132 q 379 138 388 180 z"},"{":{"x_min":0,"x_max":324,"ha":324,"o":"m 70 238 l 70 274 q 97 281 108 289 q 120 297 127 312 q 133 328 133 385 l 133 477 q 133 555 163 579 q 188 602 242 602 l 286 602 l 286 563 q 258 561 247 548 q 236 535 236 505 l 236 458 l 236 360 q 236 312 218 290 q 200 268 151 256 q 200 243 218 222 q 236 200 236 152 l 236 53 q 236 -1 237 -11 q 238 -22 243 -31 q 254 -48 286 -52 l 286 -90 l 242 -90 q 188 -90 163 -68 q 133 -43 133 35 l 133 127 q 133 168 132 181 q 130 194 123 206 q 116 218 105 225 q 94 231 70 238 z"},"9":{"x_min":0,"x_max":478,"ha":478,"o":"m 308 274 q 258 219 186 219 q 115 219 68 268 q 21 316 21 390 q 21 477 80 533 q 138 590 229 590 q 337 590 402 502 q 454 432 454 322 q 454 182 391 89 q 324 -12 192 -12 q 122 -12 80 18 q 38 47 38 95 q 38 131 60 155 q 82 178 117 178 q 148 178 167 160 q 187 141 187 111 q 187 90 170 63 q 165 56 165 48 q 165 32 193 32 q 292 32 306 209 q 308 229 308 274 z m 236 547 q 165 547 165 409 q 165 348 179 318 q 187 302 202 292 q 218 282 235 282 q 267 282 285 314 q 304 347 304 402 q 304 468 286 509 q 270 547 236 547 z"}," ":{"x_min":0,"x_max":301,"ha":301,"o":""},"I":{"x_min":0,"x_max":370,"ha":370,"o":"m 110 120 l 110 482 q 110 522 109 530 q 108 539 104 544 q 94 557 36 557 l 23 557 l 23 602 l 348 602 l 348 557 l 335 557 q 276 557 266 544 q 262 539 261 531 q 260 522 260 482 l 260 120 q 260 79 261 71 q 262 62 266 58 q 276 45 335 45 l 348 45 l 348 0 l 23 0 l 23 45 l 36 45 q 94 45 104 58 q 108 62 109 71 q 110 80 110 120 z"},"H":{"x_min":0,"x_max":725,"ha":725,"o":"m 471 282 l 253 282 l 253 120 q 253 79 254 71 q 255 62 259 58 q 269 45 328 45 l 341 45 l 341 0 l 17 0 l 17 45 l 29 45 q 88 45 98 58 q 102 62 102 71 q 103 80 103 120 l 103 481 q 103 522 102 530 q 102 539 98 544 q 88 557 29 557 l 17 557 l 17 602 l 341 602 l 341 557 l 328 557 q 269 557 259 544 q 255 539 254 530 q 253 522 253 481 l 253 332 l 471 332 l 471 481 q 471 522 470 530 q 469 539 465 544 q 455 557 397 557 l 384 557 l 384 602 l 708 602 l 708 557 l 696 557 q 637 557 627 544 q 622 539 622 530 q 621 522 621 481 l 621 120 q 621 79 622 71 q 622 62 627 58 q 637 45 696 45 l 708 45 l 708 0 l 384 0 l 384 45 l 397 45 q 455 45 465 58 q 469 62 470 71 q 471 80 471 120 z"},"4":{"x_min":0,"x_max":478,"ha":478,"o":"m 372 207 l 455 207 l 455 151 l 372 151 l 372 120 q 372 80 372 71 q 373 62 378 57 q 388 45 438 45 l 447 45 l 447 0 l 162 0 l 162 45 l 172 45 q 226 45 235 57 q 239 62 240 71 q 241 80 241 120 l 241 151 l 16 151 l 16 212 l 319 590 l 377 590 q 372 498 372 463 z m 241 207 l 241 415 l 77 207 z"},"~":{"x_min":0,"x_max":505,"ha":505,"o":"m 112 141 l 42 185 q 92 279 162 279 q 187 279 238 260 l 282 244 q 322 228 337 228 q 351 228 363 238 q 375 247 392 272 l 462 228 q 411 133 342 133 q 316 133 268 152 l 223 168 q 183 184 168 184 q 154 184 142 175 q 130 166 112 141 z"},"D":{"x_min":0,"x_max":694,"ha":694,"o":"m 102 120 l 102 482 q 102 522 102 530 q 101 539 97 544 q 87 557 28 557 l 16 557 l 16 602 l 312 602 q 401 602 452 592 q 504 582 542 557 q 661 479 661 308 q 661 222 631 156 q 602 90 546 51 q 472 0 322 0 l 16 0 l 16 45 l 28 45 q 87 45 97 58 q 101 62 102 71 q 102 80 102 120 z m 302 45 l 320 45 q 362 45 397 60 q 432 75 450 102 q 471 130 483 186 q 495 242 495 309 q 495 557 323 557 l 302 557 q 272 557 262 547 q 252 537 252 507 l 252 99 q 252 66 262 55 q 272 45 302 45 z"},"^":{"x_min":0,"x_max":505,"ha":505,"o":"m 462 265 l 362 265 l 253 473 l 142 265 l 43 265 l 218 602 l 288 602 z"},"0":{"x_min":0,"x_max":478,"ha":478,"o":"m 239 590 q 323 590 383 518 q 455 428 455 285 q 455 158 393 73 q 331 -12 239 -12 q 146 -12 84 74 q 22 159 22 289 q 22 419 84 505 q 146 590 239 590 z m 238 547 q 194 547 180 496 q 166 442 166 289 q 166 122 183 73 q 199 32 238 32 q 282 32 296 82 q 310 136 310 288 q 310 461 292 505 q 278 547 238 547 z"},"F":{"x_min":0,"x_max":602,"ha":602,"o":"m 570 602 l 575 385 l 532 385 q 512 456 483 495 q 438 557 342 557 l 327 557 q 277 557 263 538 q 255 526 255 485 l 255 334 l 269 334 q 370 334 384 452 l 429 452 l 429 170 l 384 170 q 378 228 348 258 q 318 288 269 288 l 255 288 l 255 120 q 255 80 256 71 q 257 62 261 58 q 271 45 330 45 l 352 45 l 352 0 l 18 0 l 18 45 l 31 45 q 89 45 99 58 q 103 62 104 71 q 105 80 105 120 l 105 482 q 105 522 104 530 q 103 539 99 544 q 89 557 31 557 l 18 557 l 18 602 z"},"`":{"x_min":0,"x_max":278,"ha":278,"o":"m 208 454 l 154 454 l 32 527 q 2 544 2 570 q 2 588 15 600 q 29 612 49 612 q 70 612 89 597 q 94 593 113 569 z"},"k":{"x_min":0,"x_max":556,"ha":556,"o":"m 210 614 l 210 205 l 313 295 q 334 313 334 328 q 334 352 284 352 l 274 352 l 274 394 l 519 394 l 519 352 l 500 352 q 456 352 410 312 l 346 259 l 477 96 q 504 60 516 51 q 528 42 550 42 l 550 0 l 295 0 l 295 42 l 303 42 q 336 42 336 59 q 336 72 325 85 l 248 178 l 210 143 l 210 120 l 210 82 q 210 57 220 50 q 231 42 267 42 l 267 0 l 12 0 l 12 42 l 16 42 q 57 42 68 49 q 79 56 79 81 l 79 120 l 79 482 q 79 538 72 548 q 64 559 26 559 l 10 559 l 10 602 z"},"u":{"x_min":0,"x_max":571,"ha":571,"o":"m 487 394 l 487 109 l 487 90 q 487 68 495 61 q 503 54 532 54 l 556 54 l 556 9 l 362 0 l 362 68 q 326 24 292 6 q 258 -12 214 -12 q 126 -12 91 59 q 82 77 80 95 q 78 112 78 159 l 78 265 q 77 324 70 335 q 62 346 24 346 l 11 346 l 11 388 l 208 394 l 208 154 q 208 107 222 86 q 236 65 268 65 q 291 65 311 78 q 332 91 342 112 q 356 140 356 198 l 356 265 q 356 323 348 335 q 341 346 302 346 l 289 346 l 289 388 z"},"]":{"x_min":0,"x_max":324,"ha":324,"o":"m 26 -90 l 26 -48 l 136 -48 l 136 560 l 26 560 l 26 602 l 238 602 l 238 -90 z"},"U":{"x_min":0,"x_max":694,"ha":694,"o":"m 249 482 l 249 215 q 249 125 277 91 q 312 50 383 50 q 488 50 525 129 q 539 160 539 253 l 539 421 q 539 477 535 498 q 531 520 518 534 q 498 556 449 557 l 449 602 l 687 602 l 687 557 q 637 555 617 534 q 603 520 599 498 q 595 476 595 421 l 595 253 q 595 180 589 144 q 582 108 565 80 q 534 32 484 10 q 433 -12 353 -12 q 173 -12 121 83 q 99 123 99 218 l 99 482 q 99 522 98 530 q 98 539 93 544 q 83 557 25 557 l 12 557 l 12 602 l 337 602 l 337 557 l 324 557 q 265 557 255 544 q 251 539 250 530 q 249 522 249 482 z"},"o":{"x_min":0,"x_max":509,"ha":509,"o":"m 257 407 q 352 407 417 345 q 482 284 482 195 q 482 106 417 47 q 352 -12 253 -12 q 155 -12 90 47 q 26 106 26 197 q 26 287 92 347 q 158 407 257 407 z m 255 363 q 170 363 170 197 q 170 31 254 31 q 294 31 316 74 q 338 117 338 196 q 338 268 322 314 q 313 336 295 350 q 277 363 255 363 z"},"N":{"x_min":0,"x_max":694,"ha":694,"o":"m 225 602 l 547 225 l 547 421 q 547 476 542 498 q 538 520 525 534 q 505 556 457 557 l 457 602 l 694 602 l 694 557 q 644 555 624 534 q 611 520 607 498 q 602 477 602 421 l 602 -6 l 547 -6 l 159 455 l 159 181 q 159 126 163 104 q 168 82 181 68 q 200 48 251 46 l 251 1 l 13 1 l 13 46 q 62 48 82 68 q 95 82 99 104 q 103 126 103 181 l 103 509 q 72 554 15 556 l 15 602 z"},"+":{"x_min":0,"x_max":505,"ha":505,"o":"m 205 162 l 42 162 l 42 258 l 205 258 l 205 421 l 301 421 l 301 258 l 462 258 l 462 162 l 301 162 l 301 0 l 205 0 z"},"G":{"x_min":0,"x_max":694,"ha":694,"o":"m 599 611 l 607 372 l 562 372 q 542 467 490 519 q 438 571 364 571 q 328 571 296 554 q 265 538 247 508 q 199 432 199 297 q 199 176 233 102 q 249 68 279 50 q 308 31 347 31 q 402 31 436 66 q 470 102 470 160 l 470 172 q 470 218 459 226 q 448 235 394 235 l 385 235 l 385 280 l 681 280 l 681 235 q 622 234 612 223 q 608 218 608 209 q 607 200 607 160 l 607 -12 l 562 -12 l 522 70 q 491 38 463 22 q 402 -12 323 -12 q 194 -12 113 72 q 32 157 32 292 q 32 426 115 513 q 208 614 354 614 q 399 614 434 604 q 469 594 513 569 l 562 611 z"},"q":{"x_min":0,"x_max":540,"ha":540,"o":"m 439 406 l 480 406 q 468 307 468 227 l 468 -48 l 468 -88 q 468 -112 479 -120 q 490 -127 530 -127 l 533 -127 l 533 -168 l 264 -168 l 264 -127 l 273 -127 q 314 -127 325 -120 q 337 -112 337 -88 l 337 -48 l 337 48 q 284 -12 208 -12 q 172 -12 136 3 q 101 18 79 44 q 56 70 42 111 q 28 152 28 193 q 28 285 89 346 q 149 407 241 407 q 332 407 386 339 z m 257 363 q 172 363 172 197 q 172 44 253 44 q 293 44 316 89 q 339 133 339 211 q 339 275 325 310 q 315 334 296 349 q 278 363 257 363 z"},"d":{"x_min":0,"x_max":556,"ha":556,"o":"m 473 614 l 473 102 q 473 69 483 60 q 490 54 522 54 l 545 54 l 545 9 l 350 0 l 350 60 q 301 -12 213 -12 q 132 -12 81 44 q 31 100 31 191 q 31 282 86 344 q 141 407 221 407 q 297 407 342 351 l 342 482 q 342 538 335 548 q 328 559 289 559 l 262 559 l 262 602 z m 259 350 q 219 350 197 308 q 175 267 175 192 q 175 122 197 83 q 218 44 258 44 q 296 44 320 87 q 344 129 344 198 q 344 267 321 308 q 298 350 259 350 z"},"1":{"x_min":0,"x_max":478,"ha":478,"o":"m 309 590 l 309 120 q 309 80 310 71 q 311 62 315 58 q 324 45 382 45 l 409 45 l 409 0 l 77 0 l 77 45 l 103 45 q 162 45 172 58 q 177 62 178 71 q 178 80 178 120 l 178 416 q 178 468 169 476 q 160 485 104 486 l 69 486 l 69 532 q 208 535 280 590 z"},"5":{"x_min":0,"x_max":478,"ha":478,"o":"m 131 459 l 118 352 q 188 383 238 383 q 328 383 387 330 q 446 277 446 195 q 446 103 382 46 q 318 -12 216 -12 q 129 -12 78 26 q 26 63 26 126 q 26 164 48 188 q 69 211 106 211 q 138 211 157 192 q 177 173 177 142 q 177 122 166 108 q 156 94 132 82 q 122 77 122 71 q 122 58 144 47 q 167 36 195 36 q 245 36 271 75 q 298 115 298 191 q 298 327 203 327 q 149 327 111 295 q 112 285 112 282 q 112 268 102 258 q 92 248 78 248 q 65 248 56 257 q 48 266 48 279 q 48 295 69 317 q 86 535 88 590 q 156 576 251 576 q 353 576 402 588 q 409 590 415 590 q 422 590 422 581 q 422 548 393 511 q 343 447 236 447 q 190 447 131 459 z"}}}
